<?xml version="1.0" encoding="UTF-8"?>
<svg id="Layer_1" xmlns="http://www.w3.org/2000/svg" version="1.1" viewBox="0 0 32 32">
  <!-- Generator: Adobe Illustrator 30.2.0, SVG Export Plug-In . SVG Version: 2.1.1 Build 105)  -->
  <defs>
    <style>
      .st0 {
        fill: #fff;
      }

      .st1 {
        fill: #0ea0e4;
      }
    </style>
  </defs>
  <path class="st1" d="M2.7,0C1.21,0,0,1.25,0,2.78v26.44C0,30.76,1.21,32,2.7,32h26.59c1.49,0,2.7-1.24,2.7-2.78V2.78C32,1.24,30.79,0,29.3,0H2.7Z"/>
  <g>
    <path class="st0" d="M5.99,10.03c.52,0,.99.08,1.4.23s.81.44,1.2.85l-1.03.89c-.22-.24-.44-.41-.64-.52-.21-.11-.46-.17-.76-.17-.39,0-.69.11-.89.33-.2.22-.31.52-.31.88,0,.26.06.49.19.71.13.21.3.38.52.51.22.12.47.19.75.19h3.76v1.25h-1.05v3.72c-.17.2-.4.4-.68.59s-.62.35-1.02.48c-.4.13-.88.19-1.43.19-.74,0-1.35-.13-1.84-.4-.49-.27-.86-.63-1.11-1.08-.25-.45-.37-.95-.37-1.5,0-.76.19-1.36.57-1.8s.91-.74,1.59-.89v-.06c-.39-.1-.71-.25-.95-.44-.25-.19-.43-.43-.55-.71-.12-.28-.18-.59-.18-.94,0-.44.12-.83.36-1.18.24-.35.57-.63,1-.84s.92-.31,1.47-.31ZM7.42,15.18h-1.15c-.41,0-.75.09-1.02.28-.27.19-.46.42-.58.71-.12.29-.19.58-.19.89s.06.62.18.88c.12.26.29.46.53.62.23.15.53.22.89.22.3,0,.56-.05.78-.14.23-.09.41-.22.55-.38v-3.08Z"/>
    <path class="st0" d="M14.84,9.53v8.26c0,.32.09.55.28.69.19.14.45.2.77.2.2,0,.4-.02.58-.07s.37-.1.53-.17l.46,1.27c-.24.12-.52.22-.85.31-.34.09-.72.14-1.16.14-.81,0-1.43-.23-1.84-.7-.42-.46-.63-1.09-.63-1.88v-6.75h-2.23v-1.32h4.09Z"/>
    <path class="st0" d="M24.42,19.54c-.28.18-.61.33-1.01.45-.39.12-.82.18-1.28.18-.91,0-1.6-.24-2.05-.71-.46-.47-.69-1.1-.69-1.88v-3.76h-1.62v-1.32h1.62v-1.64l1.86-.23v1.86h2.46l-.19,1.32h-2.27v3.75c0,.38.09.67.28.84.19.18.49.27.91.27.27,0,.51-.03.73-.09s.43-.14.61-.24l.64,1.2Z"/>
    <path class="st0" d="M27.77,17.34c.39,0,.71.13.97.39.26.26.39.58.39.95,0,.23-.04.47-.12.71-.08.24-.2.54-.36.9l-1.03,2.36h-1.31l.69-2.86c-.39-.25-.58-.63-.58-1.12,0-.38.13-.69.39-.95s.58-.39.96-.39ZM27.77,12.51c.38,0,.71.13.97.4.26.27.39.58.39.95s-.13.69-.39.96c-.26.27-.58.4-.97.4s-.7-.13-.96-.4-.39-.59-.39-.96c0-.25.06-.47.18-.68.12-.2.29-.37.49-.49.21-.12.43-.18.68-.18Z"/>
  </g>
</svg>